# xmcd
#
# Track frame offsets:
# 150
# 9091
# 25434
# 45437
# 66794
# 86125
# 107736
# 124324
# 142548
# 157757
# 172876
# 187515
# 204201
# 224643
# 242373
# 258314
# 271734
# 285189
# 298519
# 313720
# 334890
#
# Disc length: 4684 seconds
#
#
# Revision: 0
# Processed by: cddbd v1.5.2PL0 Copyright (c) Steve Scherf et al.
# Submitted via: FreeRIP 2.951 
#
DISCID=11124a15
DTITLE=Snoop Dogg - The Blue Carpet Treatment
DYEAR=1900
DGENRE=Hip-Hop
TTITLE0=Intrology(G Clinton)
TTITLE1=Think About It
TTITLE2=Crazt(Nate Dogg)
TTITLE3=Vato(B Real)
TTITLE4=Thats That( R Kelly)
TTITLE5=Candy(E 40 Kurupt MC Eiht)
TTITLE6=Get A Light(Damian Marley)
TTITLE7=Gangbangin(Game)
TTITLE8=Boss Life(Akon)
TTITLE9=LAX(Ice Cube)
TTITLE10=Ten Lil Crips
TTITLE11=Round Here
TTITLE12=A Bitch I Knew
TTITLE13=Like This(Western Union)
TTITLE14=Which One Of You(Nine Inch Dix)
TTITLE15=I Wanna Fck You(Akon)
TTITLE16=Psst(Jamie Foxx)
TTITLE17=Beat Up On Yo Pads
TTITLE18=Dont Stop(Warzone Kurupt
TTITLE19=Imagine(Dr Dre Dangelo)
TTITLE20=Conversations(Stevie Wonder)
EXTD=
EXTT0=
EXTT1=
EXTT2=
EXTT3=
EXTT4=
EXTT5=
EXTT6=
EXTT7=
EXTT8=
EXTT9=
EXTT10=
EXTT11=
EXTT12=
EXTT13=
EXTT14=
EXTT15=
EXTT16=
EXTT17=
EXTT18=
EXTT19=
EXTT20=
PLAYORDER=
